<?xml version="1.0" standalone="no"?>
<!DOCTYPE svg PUBLIC "-//W3C//DTD SVG 20010904//EN"
 "http://www.w3.org/TR/2001/REC-SVG-20010904/DTD/svg10.dtd">
<svg version="1.0" xmlns="http://www.w3.org/2000/svg"
 width="200.000000pt" height="200.000000pt" viewBox="0 0 200.000000 200.000000"
 preserveAspectRatio="xMidYMid meet">
<metadata>
Created by potrace 1.11, written by Peter Selinger 2001-2013
</metadata>
<g transform="translate(0.000000,200.000000) scale(0.100000,-0.100000)"
fill="#000000" stroke="none">
<path d="M662 1674 c-42 -29 -46 -51 -48 -244 -1 -102 -2 -188 -3 -191 -1 -3
-25 6 -53 20 -48 23 -64 26 -163 26 -102 0 -114 -3 -169 -30 -81 -41 -151
-112 -189 -193 -29 -61 -32 -75 -32 -167 0 -94 2 -105 33 -168 95 -192 298
-274 502 -202 24 8 49 20 57 27 11 9 20 5 41 -15 56 -54 140 -41 161 25 15 49
14 1041 -1 1074 -22 48 -93 68 -136 38z m-188 -589 c72 -30 126 -110 126 -187
0 -101 -80 -192 -179 -204 -159 -19 -281 152 -208 291 49 95 166 139 261 100z"/>
<path d="M980 1283 c-54 -22 -57 -45 -57 -388 -1 -339 3 -364 55 -383 45 -16
70 -12 102 18 29 27 30 31 31 122 1 223 5 272 26 318 25 55 48 82 90 104 66
34 150 13 202 -52 39 -46 44 -77 45 -285 2 -177 2 -177 28 -203 39 -40 89 -42
130 -5 l32 29 1 178 c1 99 -3 202 -8 229 -31 182 -183 315 -359 316 -55 1
-149 -23 -174 -43 -8 -6 -22 2 -42 22 -30 29 -65 37 -102 23z"/>
<path d="M1860 697 c-41 -21 -50 -52 -50 -185 0 -134 9 -168 53 -191 35 -19
91 -6 117 26 18 23 20 40 20 165 l0 140 -29 29 c-32 32 -69 37 -111 16z"/>
</g>
</svg>
